#!OML:ASF X:\für Bonn\!DataBase\2005_08_10_Bjorn_Final\c3d\bjorn.ASF
:FULLY-SPECIFIED
:DEGREES
140
root -20.3111 19.1284 15.5273 -175.646 -235.747 -185.853
lowerback -0.879708 7.13008 4.51588
upperback 4.98878 9.47551 -1.03129
thorax 6.61567 4.96681 -2.86296
lowerneck 0.377647 -1.47993 2.80967
upperneck 2.65837 -1.95557 -0.679023
head 0.714236 -0.950552 -0.679657
rclavicle 1.66482e-014 -1.55052e-014
rhumerus -21.1063 27.5079 -98.4024
rradius 103.53
rwrist -3.28171
rhand -25.2778 25.7972
rfingers 7.12502
rthumb 1.24324 -4.17895
lclavicle 1.66482e-014 -1.55052e-014
lhumerus -64.8424 -24.8712 104.558
lradius 63.5826
lwrist 18.4202
lhand -40.5577 -19.5204
lfingers 7.12502
lthumb -13.5053 10.0217
rfemur 11.4129 -8.50872 12.3458
rtibia 23.4394
rfoot 16.7922 9.96801
rtoes -16.5515
lfemur -41.9912 7.683 -28.9981
ltibia 44.8274
lfoot -10.5346 -5.95538
ltoes -21.2713
141
root -20.0343 19.1538 15.6889 -175.701 -235.641 -185.589
lowerback -1.01728 7.37099 4.28174
upperback 4.92017 9.81474 -1.25755
thorax 6.65429 5.12858 -2.92414
lowerneck 0.825015 -1.6187 2.69623
upperneck 2.72364 -2.13193 -0.250638
head 0.661546 -1.0339 -0.524812
rclavicle -6.12008e-014 -4.96962e-016
rhumerus -22.4985 27.8906 -99.267
rradius 103.56
rwrist -3.21913
rhand -24.509 25.3983
rfingers 7.12502
rthumb 1.98578 -4.57224
lclavicle -6.12008e-014 -4.96962e-016
lhumerus -65.1491 -24.4496 104.151
lradius 64.1152
lwrist 17.9614
lhand -40.868 -19.9159
lfingers 7.12502
lthumb -13.8044 9.60608
rfemur 11.7029 -8.4083 11.6035
rtibia 24.0592
rfoot 19.0623 10.4596
rtoes -19.3717
lfemur -41.3559 8.35083 -29.858
ltibia 42.8278
lfoot -10.5461 -6.84472
ltoes -22.2214
142
root -19.7572 19.17 15.851 -175.729 -235.526 -185.25
lowerback -1.13 7.61332 4.02504
upperback 4.88762 10.1613 -1.50537
thorax 6.71829 5.29521 -2.99417
lowerneck 1.22252 -1.75911 2.63804
upperneck 2.72277 -2.31084 0.13055
head 0.597435 -1.1199 -0.394096
rclavicle -6.75247e-015 1.2101e-014
rhumerus -23.8451 28.1629 -100.132
rradius 103.313
rwrist -2.94432
rhand -23.8998 25.4247
rfingers 7.12502
rthumb 2.57409 -4.53949
lclavicle -6.75247e-015 1.2101e-014
lhumerus -65.3416 -24.0235 103.631
lradius 64.6864
lwrist 17.025
lhand -40.995 -19.8543
lfingers 7.12502
lthumb -13.9268 9.65927
rfemur 11.8406 -8.27223 10.818
rtibia 25.0196
rfoot 20.7991 11.1094
rtoes -22.1177
lfemur -40.6264 8.97399 -30.7307
ltibia 41.1172
lfoot -10.6722 -7.50292
ltoes -22.7222
143
root -19.481 19.1707 16.0119 -175.88 -235.427 -185.032
lowerback -1.19344 7.82223 3.83473
upperback 4.84933 10.4606 -1.71638
thorax 6.74891 5.4406 -3.07308
lowerneck 1.69712 -1.88653 2.57643
upperneck 2.59358 -2.46734 0.433511
head 0.48246 -1.19784 -0.284957
rclavicle -1.1783e-013 2.8625e-014
rhumerus -25.2439 28.4161 -101.023
rradius 102.809
rwrist -2.47444
rhand -23.5069 25.8559
rfingers 7.12502
rthumb 2.95352 -4.10342
lclavicle -1.1783e-013 2.8625e-014
lhumerus -65.4205 -23.4407 103
lradius 65.2474
lwrist 15.5871
lhand -40.8943 -19.4154
lfingers 7.12502
lthumb -13.8298 10.1049
rfemur 11.8584 -8.10521 10.1033
rtibia 26.2624
rfoot 21.9185 11.6832
rtoes -24.2156
lfemur -39.8727 9.7269 -31.5239
ltibia 39.7437
lfoot -10.6946 -8.00894
ltoes -22.565
144
root -19.2063 19.1602 16.173 -176.122 -235.363 -184.947
lowerback -1.27601 8.02225 3.71132
upperback 4.81231 10.7452 -1.9203
thorax 6.80247 5.58204 -3.17753
lowerneck 2.23567 -2.02718 2.63443
upperneck 2.29363 -2.63366 0.637588
head 0.304419 -1.28365 -0.22313
rclavicle -3.70236e-014 2.18663e-014
rhumerus -26.6534 28.6036 -102
rradius 102.31
rwrist -2.1307
rhand -23.1743 26.2597
rfingers 7.12502
rthumb 3.27478 -3.69491
lclavicle -3.70236e-014 2.18663e-014
lhumerus -65.3448 -22.8508 102.25
lradius 65.8051
lwrist 13.9312
lhand -40.6024 -18.8168
lfingers 7.12502
lthumb -13.5484 10.7224
rfemur 11.7549 -7.9385 9.48932
rtibia 27.7061
rfoot 22.377 11.9782
rtoes -25.9094
lfemur -39.1364 10.4425 -32.1665
ltibia 38.6908
lfoot -10.6024 -8.15983
ltoes -21.9665
